<?xml version="1.0" standalone="no"?>
<!DOCTYPE svg PUBLIC "-//W3C//DTD SVG 20010904//EN"
 "http://www.w3.org/TR/2001/REC-SVG-20010904/DTD/svg10.dtd">
<svg version="1.0" xmlns="http://www.w3.org/2000/svg"
 width="640.000000pt" height="640.000000pt" viewBox="0 0 640.000000 640.000000"
 preserveAspectRatio="xMidYMid meet">
<metadata>
Created by potrace 1.14, written by Peter Selinger 2001-2017
</metadata>
<g transform="translate(0.000000,640.000000) scale(0.100000,-0.100000)"
fill="#000000" stroke="none">
<path d="M3924 6026 c-51 -16 -129 -69 -150 -102 l-16 -24 -43 39 c-48 44 -95
61 -172 61 -45 0 -58 -5 -89 -32 -70 -61 -104 -184 -74 -263 6 -15 51 -71 101
-126 83 -92 143 -188 162 -259 8 -31 36 -25 130 32 167 99 297 246 347 393 35
102 22 214 -30 267 -24 23 -37 28 -77 27 -26 0 -66 -6 -89 -13z m116 -91 c9
-10 11 -38 8 -88 -6 -98 -57 -195 -149 -288 -61 -60 -180 -149 -199 -149 -5 0
-15 21 -24 46 -19 56 -47 94 -143 195 -39 42 -75 88 -78 102 -16 62 45 167 97
167 30 -1 107 -36 135 -62 12 -12 27 -36 33 -54 7 -19 17 -34 24 -34 7 0 41
31 74 69 86 96 186 139 222 96z"/>
<path d="M3142 5683 c-20 -39 -82 -222 -102 -301 -6 -24 -17 -92 -25 -152 -15
-122 -8 -221 25 -353 32 -128 58 -177 195 -372 139 -196 164 -234 189 -283 30
-59 62 -173 71 -252 3 -30 8 -71 11 -91 l5 -36 -269 1 -269 1 -6 105 c-13 266
-158 482 -402 601 -253 123 -486 100 -568 -56 -24 -46 -29 -162 -8 -232 15
-54 91 -167 114 -171 16 -3 17 -1 8 15 -5 11 -15 48 -21 84 -9 55 -8 75 9 142
24 90 49 128 106 156 64 31 120 34 209 11 124 -32 221 -84 296 -159 110 -112
162 -236 173 -417 l5 -81 -116 -13 c-559 -59 -1027 -247 -1192 -477 -63 -89
-82 -151 -81 -269 2 -471 164 -1040 397 -1407 116 -180 307 -385 443 -472 248
-160 620 -236 1014 -206 306 23 522 94 710 234 143 105 349 367 440 558 23 48
44 88 47 89 3 0 5 -42 5 -92 0 -80 3 -97 23 -125 57 -80 192 -101 315 -49 78
34 107 70 107 135 0 26 -4 40 -10 36 -5 -3 -10 -14 -10 -24 0 -69 -183 -108
-280 -58 -51 25 -90 88 -73 116 20 33 82 53 196 62 379 31 494 77 606 245 64
95 75 146 69 306 -6 149 -36 250 -98 332 -101 133 -294 165 -515 85 -94 -34
-84 -19 -102 -152 -4 -32 -12 -57 -17 -57 -5 1 -13 -4 -17 -12 -5 -8 -9 -9 -9
-2 0 6 7 17 15 24 9 7 13 21 10 31 -4 11 -2 19 4 19 6 0 11 19 11 44 0 24 7
61 16 82 12 29 16 78 18 209 l1 171 -37 74 c-78 157 -240 282 -506 390 -138
56 -392 122 -560 145 -62 8 -118 15 -123 15 -7 0 -10 -16 -7 -39 2 -22 -1 -37
-6 -34 -5 3 -6 58 -2 127 9 148 -9 285 -53 405 -31 86 -65 149 -169 313 -100
156 -165 318 -203 504 -19 94 -21 127 -16 302 3 136 10 214 21 252 19 66 14
75 -12 23z m-265 -1905 c-2 -13 -4 -5 -4 17 -1 22 1 32 4 23 2 -10 2 -28 0
-40z m100 5 c-3 -10 -5 -2 -5 17 0 19 2 27 5 18 2 -10 2 -26 0 -35z m520 -5
c-2 -13 -4 -5 -4 17 -1 22 1 32 4 23 2 -10 2 -28 0 -40z m-742 25 c-11 -3 -25
-9 -31 -14 -7 -5 -11 -4 -11 4 0 8 13 13 31 14 19 1 23 -1 11 -4z m-95 -18
c-73 -20 -102 -34 -95 -45 3 -5 0 -7 -8 -4 -8 3 -56 -13 -107 -36 -95 -41
-126 -51 -79 -25 34 18 236 105 269 115 14 5 34 8 45 8 11 0 0 -6 -25 -13z
m790 -33 l55 -7 -3 -39 c-2 -22 -15 -71 -28 -110 -38 -108 -38 -115 -1 -58 19
29 45 86 58 128 l24 75 50 -6 c450 -54 850 -206 1023 -389 144 -153 143 -312
-5 -461 -346 -352 -1313 -510 -2078 -340 -226 50 -451 138 -592 232 -77 51
-163 140 -198 203 -26 48 -30 65 -30 135 0 97 22 148 98 231 67 73 150 132
283 198 197 98 405 154 737 200 l38 5 -3 -137 -3 -137 -65 -7 c-454 -51 -827
-183 -1022 -364 -21 -19 -38 -42 -38 -52 1 -28 64 -121 123 -181 51 -51 143
-113 253 -170 69 -36 289 -109 409 -136 239 -53 375 -67 695 -67 242 -1 311 2
385 16 50 10 98 18 108 18 9 -1 15 3 12 9 -4 5 -2 9 4 9 5 0 18 3 28 6 15 5
16 4 3 -5 -21 -17 35 -7 201 34 222 55 376 119 517 213 93 62 152 122 152 153
0 48 -117 176 -226 245 -186 119 -501 220 -809 258 -191 24 -198 25 -439 25
l-228 1 6 88 c4 48 9 111 13 140 l5 52 217 -1 c119 -1 241 -4 271 -7z m650
-92 c18 -12 2 -12 -25 0 -13 6 -15 9 -5 9 8 0 22 -4 30 -9z m-1760 -4 c0 -2
-7 -7 -16 -10 -8 -3 -12 -2 -9 4 6 10 25 14 25 6z m1875 -36 c3 -6 -1 -7 -9
-4 -18 7 -21 14 -7 14 6 0 13 -4 16 -10z m75 -30 c8 -5 11 -10 5 -10 -5 0 -17
5 -25 10 -8 5 -10 10 -5 10 6 0 17 -5 25 -10z m70 -30 c22 -11 40 -23 40 -25
0 -5 -79 32 -89 41 -11 10 14 2 49 -16z m165 -98 c-3 -3 -11 0 -18 7 -9 10 -8
11 6 5 10 -3 15 -9 12 -12z m76 -59 c13 -16 12 -17 -3 -4 -10 7 -18 15 -18 17
0 8 8 3 21 -13z m-1974 -57 c80 -22 116 -43 168 -94 69 -69 85 -106 84 -199 0
-43 -4 -96 -8 -118 -4 -25 -6 6 -4 80 2 108 1 123 -18 152 -12 18 -26 30 -32
26 -6 -4 -7 -1 -2 7 5 8 -10 28 -45 60 -67 60 -158 89 -315 101 l-110 7 115
-3 c63 -3 138 -11 167 -19z m1267 -236 c34 -16 79 -45 99 -65 36 -35 93 -132
83 -142 -2 -3 -16 20 -31 51 -43 90 -148 164 -245 173 l-45 3 37 -14 c208 -81
270 -284 135 -442 -46 -55 -113 -114 -129 -114 -6 0 11 18 38 39 94 74 153
170 154 247 0 130 -119 256 -259 272 -59 7 -29 20 48 21 39 1 69 -7 115 -29z
m802 -222 c-14 -29 -39 -69 -56 -88 -27 -30 -25 -26 9 29 23 35 46 79 53 98 7
19 14 30 16 24 2 -6 -8 -34 -22 -63z m-1811 -150 c10 -18 27 -43 38 -55 11
-13 18 -26 15 -29 -8 -8 -62 74 -76 115 -7 19 -11 55 -11 80 1 44 2 44 10 -16
4 -34 15 -76 24 -95z m1213 87 l0 -30 -8 30 c-4 17 -8 39 -8 50 l-1 20 9 -20
c5 -11 8 -33 8 -50z m616 -17 c-87 -591 -276 -1035 -569 -1337 -196 -202 -379
-309 -615 -360 -369 -80 -727 -22 -968 156 -367 269 -615 735 -727 1365 l-7
38 103 -49 c233 -110 512 -180 859 -217 220 -23 728 -15 915 14 274 43 483
102 663 187 101 48 235 133 227 145 -2 4 3 7 12 7 9 0 34 20 57 45 23 25 44
46 49 47 4 1 4 -18 1 -41z m193 26 c-3 -3 -12 -4 -19 -1 -8 3 -5 6 6 6 11 1
17 -2 13 -5z m211 -30 c80 -22 74 -30 -8 -9 -33 9 -87 20 -118 25 l-57 9 60
-3 c33 -2 88 -12 123 -22z m-1028 -99 c-6 -31 -16 -53 -21 -49 -6 4 -6 10 -1
17 6 7 13 37 18 67 4 30 9 47 12 38 2 -10 -2 -43 -8 -73z m1154 60 c20 -8 36
-20 36 -26 0 -8 -4 -8 -13 -1 -7 7 -29 18 -48 26 -19 9 -29 15 -23 16 6 0 28
-7 48 -15z m97 -78 l22 -32 -31 29 c-18 17 -32 34 -32 38 0 15 18 0 41 -35z
m-611 -2 c0 -3 -5 -14 -12 -25 -10 -15 -9 -23 6 -39 16 -17 22 -19 34 -8 13
10 14 9 10 -3 -2 -8 -15 -17 -27 -18 -14 -2 -21 0 -17 6 4 6 2 13 -3 17 -6 3
-15 -9 -21 -27 -10 -33 -10 -33 -5 7 10 70 16 95 26 95 5 0 9 -2 9 -5z m-1651
-119 c30 -16 73 -35 95 -42 32 -10 35 -13 16 -13 -40 -1 -209 88 -229 121 -11
18 -6 16 25 -8 22 -16 63 -43 93 -58z m2327 26 c24 -58 11 -55 -16 3 -14 30
-20 49 -12 43 7 -6 20 -27 28 -46z m-1336 44 c0 -3 -4 -8 -10 -11 -5 -3 -10
-1 -10 4 0 6 5 11 10 11 6 0 10 -2 10 -4z m1084 -45 c87 -43 140 -159 140
-311 1 -99 -17 -147 -74 -192 -40 -31 -88 -39 -330 -57 -160 -12 -233 -31
-277 -74 -18 -17 -35 -29 -37 -26 -3 3 5 27 18 54 51 108 166 504 166 572 0
40 95 63 250 60 78 -2 104 -6 144 -26z m-437 -55 c-15 -31 -20 -27 -11 8 3 14
10 24 14 21 5 -3 3 -16 -3 -29z m-30 -28 c-3 -8 -6 -5 -6 6 -1 11 2 17 5 13 3
-3 4 -12 1 -19z m740 0 c-3 -8 -6 -5 -6 6 -1 11 2 17 5 13 3 -3 4 -12 1 -19z
m10 -125 c-2 -21 -4 -4 -4 37 0 41 2 58 4 38 2 -21 2 -55 0 -75z m-770 45 c-3
-8 -6 -5 -6 6 -1 11 2 17 5 13 3 -3 4 -12 1 -19z m-17 -65 c-11 -17 -11 -17
-6 0 3 10 7 26 7 35 1 15 2 15 6 0 2 -10 -1 -25 -7 -35z m770 -70 c-27 -84
-89 -171 -142 -199 -39 -20 -35 -10 5 14 41 23 110 127 127 188 7 25 15 42 17
40 3 -3 0 -22 -7 -43z m-786 3 c-3 -15 -8 -25 -11 -23 -2 3 -1 17 3 31 3 15 8
25 11 23 2 -3 1 -17 -3 -31z m-39 -127 c-15 -46 -33 -96 -42 -112 -8 -16 -12
-35 -9 -43 3 -9 1 -12 -4 -9 -6 3 -10 0 -10 -7 0 -7 -25 -62 -55 -122 -30 -60
-52 -112 -50 -116 2 -4 -2 -7 -10 -7 -9 0 5 37 42 110 50 101 132 304 148 370
4 15 10 26 12 23 3 -2 -7 -42 -22 -87z m645 -99 c0 -5 -5 -10 -11 -10 -5 0 -7
5 -4 10 3 6 8 10 11 10 2 0 4 -4 4 -10z m100 -15 c0 -13 -146 -66 -180 -64 -8
0 14 9 50 19 36 10 79 26 95 34 33 18 35 18 35 11z m-217 -72 c-13 -2 -33 -2
-45 0 -13 2 -3 4 22 4 25 0 35 -2 23 -4z m-105 -10 c-21 -2 -55 -2 -75 0 -21
2 -4 4 37 4 41 0 58 -2 38 -4z m-145 -10 c-13 -2 -35 -2 -50 0 -16 2 -5 4 22
4 28 0 40 -2 28 -4z m-136 -17 c-56 -15 -97 -43 -114 -77 -8 -15 -13 -18 -13
-8 0 37 92 97 150 98 14 0 5 -6 -23 -13z m-76 -290 c29 -16 75 -30 121 -36
l73 -9 -73 4 c-55 3 -84 10 -122 31 -45 24 -90 75 -90 100 0 5 10 -8 22 -28
13 -22 40 -47 69 -62z m-270 50 c-6 -14 -15 -26 -20 -26 -5 0 -12 -9 -16 -19
-3 -11 -19 -34 -36 -53 -19 -21 -11 -4 23 48 29 45 54 80 56 79 1 -1 -2 -14
-7 -29z m-107 -150 c-3 -8 -12 -17 -20 -20 -9 -3 -12 -11 -8 -17 5 -8 3 -9 -5
-4 -9 5 -7 13 10 31 26 28 31 30 23 10z m-72 -83 c-29 -37 -106 -111 -169
-164 -18 -15 -29 -30 -25 -34 4 -4 2 -5 -3 -4 -6 2 -44 -19 -85 -45 -78 -51
-146 -85 -168 -86 -7 0 24 19 70 43 119 61 210 129 313 234 49 50 92 92 93 92
2 1 -10 -16 -26 -36z m-1442 -343 c9 -13 105 -57 116 -53 6 2 17 -3 24 -12 14
-17 50 -21 50 -5 0 6 5 10 10 10 7 0 7 -6 0 -20 -6 -11 -17 -20 -24 -20 -24 0
-246 124 -246 137 0 5 64 -29 70 -37z m940 -7 c-19 -8 -51 -17 -70 -19 -28 -4
-24 -1 20 15 66 23 99 26 50 4z m-126 -33 c-12 -5 -55 -11 -95 -14 l-74 -5 75
13 c41 7 84 13 95 14 19 1 19 0 -1 -8z m-181 -27 c-7 -2 -19 -2 -25 0 -7 3 -2
5 12 5 14 0 19 -2 13 -5z m-390 -40 c-7 -2 -21 -2 -30 0 -10 3 -4 5 12 5 17 0
24 -2 18 -5z m65 -10 c-10 -2 -26 -2 -35 0 -10 3 -2 5 17 5 19 0 27 -2 18 -5z"/>
<path d="M1397 2295 c-613 -310 -821 -749 -546 -1152 289 -423 1087 -733 2066
-804 191 -14 866 -7 1018 10 305 35 577 88 795 156 619 192 1010 497 1105 861
57 219 -32 464 -244 672 -99 97 -106 100 -126 63 -16 -33 -20 -61 -7 -61 5 0
45 -35 89 -79 314 -303 307 -636 -19 -936 -269 -246 -778 -455 -1343 -550
-312 -52 -688 -81 -930 -71 -810 32 -1564 294 -1901 660 -126 136 -183 259
-191 411 -10 182 67 350 236 513 50 48 153 131 187 150 11 6 6 28 -24 107 -20
54 -42 100 -47 102 -6 2 -59 -22 -118 -52z m4133 -279 c0 -5 -13 3 -30 19 -16
16 -30 30 -30 32 0 2 14 -6 30 -19 17 -12 30 -26 30 -32z m75 -74 c-5 -5 -65
56 -65 66 0 3 16 -9 35 -28 19 -18 33 -36 30 -38z m33 -32 c7 -11 11 -20 9
-20 -2 0 -12 9 -22 20 -10 11 -14 20 -9 20 5 0 15 -9 22 -20z m87 -131 c9 -17
15 -33 13 -35 -3 -2 -12 12 -21 31 -21 43 -13 47 8 4z m21 -527 c0 -10 -6 -19
-13 -19 -8 0 -9 6 -2 19 5 10 11 18 12 18 2 0 3 -8 3 -18z m-37 -54 c-12 -24
-65 -95 -83 -113 -5 -5 -2 1 7 15 66 99 81 120 84 120 2 0 -2 -10 -8 -22z
m-174 -206 c-39 -37 -92 -82 -118 -100 -29 -19 -45 -37 -41 -44 5 -7 3 -8 -5
-3 -8 4 -26 -2 -44 -16 -37 -27 -295 -159 -311 -159 -6 0 48 30 119 66 72 36
155 82 185 101 75 49 209 154 244 192 17 17 32 31 35 31 3 0 -26 -31 -64 -68z
m-555 -337 c-14 -8 -32 -14 -40 -14 -8 0 -1 6 15 14 40 18 57 18 25 0z m-83
-31 c-33 -18 -172 -64 -190 -63 -7 0 27 13 75 29 48 16 95 33 105 39 10 6 23
10 28 10 6 0 -3 -7 -18 -15z m-257 -84 c-119 -39 -160 -50 -187 -49 -26 1 -26
2 7 9 71 17 194 50 198 55 3 3 12 5 21 4 9 0 -9 -9 -39 -19z m-227 -57 c-7 -2
-19 -2 -25 0 -7 3 -2 5 12 5 14 0 19 -2 13 -5z m-88 -18 c-27 -7 -63 -13 -80
-13 -18 0 -6 5 30 13 78 16 114 16 50 0z m-127 -22 c-10 -2 -26 -2 -35 0 -10
3 -2 5 17 5 19 0 27 -2 18 -5z m-93 -14 c-22 -4 -58 -7 -80 -7 l-40 1 45 7
c25 4 61 7 80 7 l35 1 -40 -9z m-137 -16 c-10 -2 -28 -2 -40 0 -13 2 -5 4 17
4 22 1 32 -1 23 -4z m-95 -10 c-13 -2 -35 -2 -50 0 -16 2 -5 4 22 4 28 0 40
-2 28 -4z m-175 -10 c-10 -2 -26 -2 -35 0 -10 3 -2 5 17 5 19 0 27 -2 18 -5z
m-345 -10 c-7 -2 -21 -2 -30 0 -10 3 -4 5 12 5 17 0 24 -2 18 -5z m147 -13
l25 -8 -25 0 c-14 0 -45 3 -70 7 l-45 8 45 1 c25 0 56 -4 70 -8z m93 -17 c-7
-2 -21 -2 -30 0 -10 3 -4 5 12 5 17 0 24 -2 18 -5z"/>
<path d="M1750 1739 c-74 -51 -137 -119 -160 -172 -29 -67 -25 -171 9 -239
122 -252 615 -449 1271 -509 190 -17 705 -6 897 20 564 77 952 252 1068 483
29 58 35 82 35 132 0 80 -15 104 -24 39 -35 -264 -423 -485 -1011 -577 -538
-84 -1091 -51 -1512 90 -210 70 -335 137 -437 233 -129 124 -146 244 -53 380
21 29 37 56 37 60 0 11 -61 91 -68 91 -4 0 -27 -14 -52 -31z m59 -116 c-57
-61 -62 -71 -75 -141 l-13 -67 4 58 c3 32 12 71 20 87 17 32 78 100 91 100 4
0 -8 -17 -27 -37z m-4 -355 c23 -32 46 -54 51 -50 5 4 6 3 2 -2 -9 -11 39 -49
52 -41 6 3 7 0 4 -9 -3 -9 -1 -16 5 -16 7 0 22 -9 34 -20 24 -23 240 -130 300
-150 21 -6 36 -14 34 -16 -8 -8 -133 43 -225 91 -113 59 -209 131 -260 198
-38 49 -73 123 -71 151 0 6 8 -9 16 -34 9 -25 35 -71 58 -102z m2835 -102 c0
-2 -16 -13 -35 -25 -19 -11 -35 -18 -35 -16 0 5 61 45 68 45 1 0 2 -2 2 -4z
m-245 -126 c-3 -5 -12 -10 -18 -10 -7 0 -6 4 3 10 19 12 23 12 15 0z m-75 -30
c-8 -5 -19 -10 -25 -10 -5 0 -3 5 5 10 8 5 20 10 25 10 6 0 3 -5 -5 -10z
m-143 -46 c-3 -3 -12 -4 -19 -1 -8 3 -5 6 6 6 11 1 17 -2 13 -5z m-1795 -23
c13 -5 74 -21 137 -36 96 -22 118 -25 143 -14 16 6 31 9 35 5 3 -3 -1 -6 -10
-6 -9 0 -19 -4 -22 -10 -4 -6 7 -10 25 -10 22 0 29 4 24 13 -4 6 2 4 13 -5 11
-10 28 -18 38 -18 10 0 16 -3 13 -6 -9 -9 -149 14 -285 47 -129 31 -180 47
-151 48 9 1 27 -3 40 -8z m459 -78 c-11 -5 -11 -7 0 -14 10 -6 3 -8 -18 -7
-38 3 -44 15 -10 21 32 6 44 6 28 0z m102 -30 c-7 -2 -21 -2 -30 0 -10 3 -4 5
12 5 17 0 24 -2 18 -5z"/>
</g>
</svg>
